HIERARCHY
ROOT Hips
{
	OFFSET 0.00000 0.00000 0.00000
	CHANNELS 6 Xposition Yposition Zposition Zrotation Yrotation Xrotation 
	JOINT LHipJoint
	{
		OFFSET 0 0 0
		CHANNELS 3 Zrotation Yrotation Xrotation
		JOINT LeftUpLeg
		{
			OFFSET 1.58161 -1.81893 0.78828
			CHANNELS 3 Zrotation Yrotation Xrotation
			JOINT LeftLeg
			{
				OFFSET 2.53374 -6.96141 0.00000
				CHANNELS 3 Zrotation Yrotation Xrotation
				JOINT LeftFoot
				{
					OFFSET 2.63509 -7.23986 0.00000
					CHANNELS 3 Zrotation Yrotation Xrotation
					JOINT LeftToeBase
					{
						OFFSET 0.14115 -0.38781 2.05350
						CHANNELS 3 Zrotation Yrotation Xrotation
						End Site
						{
							OFFSET 0.00000 -0.00000 1.05543
						}
					}
				}
			}
		}
	}
	JOINT RHipJoint
	{
		OFFSET 0 0 0
		CHANNELS 3 Zrotation Yrotation Xrotation
		JOINT RightUpLeg
		{
			OFFSET -1.11138 -1.81893 0.78828
			CHANNELS 3 Zrotation Yrotation Xrotation
			JOINT RightLeg
			{
				OFFSET -2.58392 -7.09926 0.00000
				CHANNELS 3 Zrotation Yrotation Xrotation
				JOINT RightFoot
				{
					OFFSET -2.66423 -7.31992 0.00000
					CHANNELS 3 Zrotation Yrotation Xrotation
					JOINT RightToeBase
					{
						OFFSET -0.18831 -0.51739 2.12114
						CHANNELS 3 Zrotation Yrotation Xrotation
						End Site
						{
							OFFSET -0.00000 -0.00000 1.09845
						}
					}
				}
			}
		}
	}
	JOINT LowerBack
	{
		OFFSET 0 0 0
		CHANNELS 3 Zrotation Yrotation Xrotation
		JOINT Spine
		{
			OFFSET -0.01511 1.97958 -0.08829
			CHANNELS 3 Zrotation Yrotation Xrotation
			JOINT Spine1
			{
				OFFSET 0.08344 1.97334 -0.04330
				CHANNELS 3 Zrotation Yrotation Xrotation
				JOINT Neck
				{
					OFFSET 0 0 0
					CHANNELS 3 Zrotation Yrotation Xrotation
					JOINT Neck1
					{
						OFFSET 0.00559 1.76246 0.31246
						CHANNELS 3 Zrotation Yrotation Xrotation
						JOINT Head
						{
							OFFSET -0.07011 1.80354 -0.30524
							CHANNELS 3 Zrotation Yrotation Xrotation
							End Site
							{
								OFFSET -0.02385 1.83547 -0.13906
							}
						}
					}
				}
				JOINT LeftShoulder
				{
					OFFSET 0 0 0
					CHANNELS 3 Zrotation Yrotation Xrotation
					JOINT LeftArm
					{
						OFFSET 3.20667 1.30156 -0.60240
						CHANNELS 3 Zrotation Yrotation Xrotation
						JOINT LeftForeArm
						{
							OFFSET 4.95663 -0.00000 0.00000
							CHANNELS 3 Zrotation Yrotation Xrotation
							JOINT LeftHand
							{
								OFFSET 3.38177 -0.00000 0.00000
								CHANNELS 3 Zrotation Yrotation Xrotation
								JOINT LeftFingerBase
								{
									OFFSET 0 0 0
									CHANNELS 3 Zrotation Yrotation Xrotation
									JOINT LeftHandIndex1
									{
										OFFSET 0.66291 -0.00000 0.00000
										CHANNELS 3 Zrotation Yrotation Xrotation
										End Site
										{
											OFFSET 0.53445 -0.00000 0.00000
										}
									}
								}
								JOINT LThumb
								{
									OFFSET 0 0 0
									CHANNELS 3 Zrotation Yrotation Xrotation
									End Site
									{
										OFFSET 0.54261 -0.00000 0.54261
									}
								}
							}
						}
					}
				}
				JOINT RightShoulder
				{
					OFFSET 0 0 0
					CHANNELS 3 Zrotation Yrotation Xrotation
					JOINT RightArm
					{
						OFFSET -3.06877 1.34672 -0.60964
						CHANNELS 3 Zrotation Yrotation Xrotation
						JOINT RightForeArm
						{
							OFFSET -5.08365 -0.00000 0.00000
							CHANNELS 3 Zrotation Yrotation Xrotation
							JOINT RightHand
							{
								OFFSET -3.35984 -0.00000 0.00000
								CHANNELS 3 Zrotation Yrotation Xrotation
								JOINT RightFingerBase
								{
									OFFSET 0 0 0
									CHANNELS 3 Zrotation Yrotation Xrotation
									JOINT RightHandIndex1
									{
										OFFSET -0.82076 -0.00000 0.00000
										CHANNELS 3 Zrotation Yrotation Xrotation
										End Site
										{
											OFFSET -0.66172 -0.00000 0.00000
										}
									}
								}
								JOINT RThumb
								{
									OFFSET 0 0 0
									CHANNELS 3 Zrotation Yrotation Xrotation
									End Site
									{
										OFFSET -0.67182 -0.00000 0.67182
									}
								}
							}
						}
					}
				}
			}
		}
	}
}
MOTION
Frames: 12
Frame Time: 0.166667
0.00 0.00 0.00 0 0 0 0 0 0 -21 0 0 0 0 0 0 0 0 0 0 0 0 0 0 21 0 0 0 0 0 0 0 0 0 0 0 0 0 0 0 0 0 0 0 0 0 0 -16 0 0 21 0 0 11 0 0 0 -8 0 0 0 0 0 0 0 0 0 0 0 0 0 0 0 0 0 0 0 0 8 0 0 0 0 0 0 0 0 0 0 0 0 0 0 0 0 0
0.00 0.00 0.00 -1.5038 -7.5501 7.5823 0.0000 0.0000 0.0000 -20.4442 1.9028 -11.4657 1.6229 8.0319 22.8111 0.8442 -3.3541 -16.5537 0.1994 -2.8753 -7.9317 0.0000 0.0000 0.0000 14.3253 1.9834 -22.3013 -4.1659 -12.3780 37.0827 -0.3740 -3.4844 -13.3657 -0.1890 2.7999 -7.7221 -7.0555 0.2131 -4.1291 2.6736 0.5892 1.5808 6.8263 0.0805 3.8765 1.0298 1.7456 -16.1416 -7.4371 5.5557 41.4075 -2.6429 1.3074 18.7150 -0.0000 0.0000 0.0000 -89.2627 -4.4439 18.2026 14.0646 -22.8270 -2.8531 -0.0000 0.0000 -2.9504 9.2681 36.1492 5.4984 -7.1250 0.0000 -0.0000 -30.5611 63.9377 -14.6944 -0.0000 0.0000 0.0000 83.7498 1.9039 24.7006 -15.0248 24.1807 -3.2361 0.0000 -0.0000 -11.4995 -28.3791 15.8297 -8.3829 7.1250 -0.0000 -0.0000 -0.4516 -12.1181 -0.3468
0.00 0.00 0.00 -0.4669 -1.0586 12.1705 0.0000 0.0000 0.0000 -17.5445 -1.0564 -9.9576 1.6800 8.1650 23.2162 1.0647 -4.4236 -18.5287 1.0400 -6.4859 -18.2009 0.0000 0.0000 0.0000 15.8414 3.0019 -39.2902 -3.0528 -10.7800 31.5415 0.0422 -5.2491 -5.9361 -0.0018 -0.2716 0.7464 -6.5452 1.3714 3.8514 2.8714 1.6563 4.5330 6.6467 0.5973 2.2814 0.1728 0.8952 -15.2201 -7.9301 4.6498 39.3865 -2.7531 0.8569 17.2109 -0.0000 -0.0000 0.0000 -84.1936 0.0449 45.4380 29.3721 -40.3491 -11.0008 -0.0000 0.0000 -11.9761 17.7315 31.7599 9.5535 -7.1250 0.0000 -0.0000 -17.0606 62.2011 -7.2487 -0.0000 -0.0000 0.0000 77.8636 11.1625 35.3605 -23.1685 34.2725 -7.2330 0.0000 -0.0000 -14.1469 -34.4842 17.6464 -11.7621 7.1250 -0.0000 -0.0000 -4.2040 -8.9230 -3.5108
0.00 0.00 0.00 -1.1293 1.3900 13.5123 0.0000 0.0000 0.0000 -13.9569 -3.3046 -18.6710 4.4152 12.6933 38.2309 0.7917 -8.0770 -16.0081 1.1462 -6.7984 -19.1194 0.0000 0.0000 0.0000 17.9062 2.2980 -41.7521 -3.7373 -11.8023 35.0362 0.0049 -4.9159 -6.8482 -0.0062 -0.5073 1.3940 -5.0677 1.9012 6.3398 3.5806 2.2799 5.3707 6.4723 0.9387 1.6843 -0.5401 0.0568 -15.5846 -7.7450 3.5399 38.7829 -2.7040 0.3485 16.8742 -0.0000 0.0000 0.0000 -83.1178 2.3024 50.1510 39.5184 -47.7820 -18.0818 -0.0000 0.0000 -14.0234 18.0048 31.0384 9.5132 -7.1250 0.0000 -0.0000 -16.1943 61.5789 -6.6315 -0.0000 0.0000 0.0000 76.0538 14.8486 37.6201 -22.9887 34.0765 -7.1320 0.0000 -0.0000 -13.0374 -35.2277 18.3718 -12.5475 7.1250 -0.0000 -0.0000 -4.5631 -7.9125 -3.9043
0.00 0.00 0.00 -1.8126 5.1827 14.4773 0.0000 0.0000 0.0000 -9.0080 -5.9705 -30.0900 8.6358 16.5675 54.8218 -0.2097 -11.7987 -4.8582 0.8996 -6.0449 -16.9147 0.0000 0.0000 0.0000 20.3316 0.6495 -43.8189 -4.2929 -12.5402 37.6709 -0.0492 -5.6171 -9.3260 -0.0172 -0.8472 2.3286 -3.8262 2.0984 8.6502 4.5436 2.5315 6.4297 6.7207 1.0667 1.4864 -0.9602 -1.0161 -15.5003 -7.5551 1.9043 37.3862 -2.7502 -0.3181 16.0033 0.0000 0.0000 0.0000 -82.1571 3.1669 54.6903 48.8749 -52.5315 -25.2784 -0.0000 0.0000 -16.2575 18.3776 28.6860 9.0606 -7.1250 0.0000 -0.0000 -14.1572 59.3847 -5.0362 0.0000 0.0000 0.0000 74.6496 19.1761 37.3505 -22.3781 33.4017 -6.7928 0.0000 -0.0000 -12.9675 -36.2572 18.8929 -13.3593 7.1250 -0.0000 -0.0000 -5.1257 -7.0590 -4.4754
0.00 0.00 0.00 0.3241 7.1516 16.5251 0.0000 0.0000 0.0000 -9.7668 -5.4330 -51.3484 11.3717 18.1122 63.9829 -0.0521 -17.3163 -11.6652 1.0534 -6.5262 -18.3190 0.0000 0.0000 0.0000 20.3845 -3.1300 -54.0414 -7.8943 -16.0410 52.1811 -0.6480 -0.6466 -15.4561 -0.1577 -2.5585 7.0519 -3.7178 4.1822 16.1396 4.6426 5.0636 9.6042 6.2091 2.2861 0.4925 -2.1539 -3.1424 -15.9962 -6.5082 -1.4113 33.4174 -2.4596 -1.6641 14.0737 0.0000 0.0000 0.0000 -81.1183 3.2953 59.9308 65.2999 -57.5643 -38.7840 -0.0000 0.0000 -14.4288 24.3945 19.8800 8.7668 -7.1250 0.0000 -0.0000 -4.0787 51.5904 -0.6629 0.0000 0.0000 0.0000 71.4916 32.7931 35.2190 -19.3349 29.8326 -5.1964 0.0000 -0.0000 -8.8329 -43.3761 21.6046 -19.1827 7.1250 -0.0000 -0.0000 -8.9205 -1.6975 -8.7601
0.00 0.00 0.00 -0.5738 8.4239 16.8924 0.0000 0.0000 0.0000 -9.2818 -5.9542 -60.2039 10.8551 17.8635 62.3102 -0.2248 -19.2040 -11.4755 0.4446 -4.2781 -11.8604 0.0000 0.0000 0.0000 21.8628 -6.0282 -62.8629 -12.2189 -18.4817 66.6811 -1.1480 3.3461 -19.4165 -0.0474 -1.4052 3.8646 -1.3754 5.0158 20.6038 5.3055 6.3913 11.6170 5.1514 2.9802 0.3842 -2.2792 -4.4805 -16.1912 -6.1161 -3.5637 30.3933 -2.4898 -2.5300 12.7540 0.0000 0.0000 0.0000 -79.3911 2.3896 62.8629 71.1343 -58.6115 -43.7380 -0.0000 0.0000 -13.9924 29.1597 13.5707 7.4589 -7.1250 0.0000 -0.0000 1.6601 45.4247 0.0174 0.0000 0.0000 0.0000 68.9747 41.3751 31.6042 -17.7956 27.8947 -4.4532 0.0000 -0.0000 -5.0559 -50.7586 23.6750 -26.1797 7.1250 -0.0000 -0.0000 -12.6220 4.0061 -13.8024
0.00 0.00 0.00 -1.0844 7.4086 15.5461 0.0000 0.0000 0.0000 -8.5718 -4.0961 -65.4317 14.9973 19.3891 75.2284 0.2404 -19.4114 -15.6286 0.1272 -2.2991 -6.3331 0.0000 0.0000 0.0000 21.3927 -9.0329 -69.9905 -17.0933 -19.7962 81.4736 -1.2943 7.9681 -20.3460 -0.0281 -1.0819 2.9743 -0.6920 5.7874 24.0682 5.4711 7.4501 12.7730 4.5123 3.5039 -0.0697 -2.0000 -4.9927 -15.7123 -6.0296 -4.4729 29.1203 -2.5647 -2.8755 12.1013 0.0000 -0.0000 0.0000 -78.5111 3.1475 64.3462 76.8472 -59.3361 -48.6347 -0.0000 0.0000 -12.6787 32.5874 14.1988 8.9110 -7.1250 0.0000 -0.0000 4.8840 46.6357 0.1976 0.0000 -0.0000 0.0000 69.0059 46.4831 28.3943 -15.5631 24.9247 -3.4598 0.0000 0.0000 1.0144 -56.2254 25.6161 -32.8803 7.1250 -0.0000 -0.0000 -15.0274 9.5776 -17.8922
0.00 0.00 0.00 -1.5947 6.6784 13.4512 0.0000 0.0000 0.0000 -6.0278 -1.1153 -72.3553 20.5029 19.9939 91.4706 0.1113 -24.7432 -18.1962 0.3863 -3.9912 -11.0519 0.0000 0.0000 0.0000 20.2258 -13.9662 -77.0909 -22.6403 -19.8320 97.7406 -1.3965 14.1455 -21.9482 -0.0002 -0.0930 0.2554 0.7715 6.8047 27.9556 5.7128 9.0079 14.0749 3.3078 4.3008 -0.3640 -2.1980 -6.0140 -16.2828 -5.3765 -6.0634 28.1408 -2.4967 -3.5150 11.8161 0.0000 -0.0000 0.0000 -77.6843 2.2259 65.7383 82.5915 -59.7916 -53.5885 -0.0000 0.0000 -6.7951 40.3500 14.2884 11.8419 -7.1250 0.0000 -0.0000 12.5662 48.0517 0.9603 0.0000 -0.0000 0.0000 67.8011 50.4511 20.9017 -13.5106 22.0308 -2.6418 0.0000 0.0000 5.0343 -62.2180 27.7881 -41.5058 7.1250 -0.0000 -0.0000 -17.4935 16.6384 -22.6596
0.00 0.00 0.00 -1.3099 7.4197 12.9320 0.0000 0.0000 0.0000 -3.4828 0.5557 -81.0180 25.5864 19.2347 106.5363 -0.6354 -30.1718 -17.7759 0.2884 -3.4536 -9.5443 0.0000 0.0000 0.0000 18.7348 -20.3171 -86.6565 -27.6158 -18.5484 112.7984 -0.8853 19.9081 -20.5073 -0.0016 -0.2615 0.7184 1.9981 6.9469 30.2695 5.8500 9.5101 14.4644 2.4553 4.5854 -0.8066 -2.4732 -6.6530 -15.5647 -5.3320 -6.9288 27.3802 -2.4914 -3.9129 11.3728 0.0000 0.0000 0.0000 -76.4504 2.0355 66.2300 86.0132 -59.9399 -56.5481 -0.0000 0.0000 -2.1262 45.3568 12.7441 12.5910 -7.1250 0.0000 -0.0000 17.4194 47.0429 0.9047 0.0000 0.0000 0.0000 66.3495 52.3950 13.8024 -12.8580 21.0788 -2.4020 0.0000 0.0000 5.6834 -64.2416 30.7303 -46.6416 7.1250 -0.0000 -0.0000 -17.5281 21.8321 -23.6279
0.00 0.00 0.00 -2.5381 4.3836 9.2191 0.0000 0.0000 0.0000 -1.0147 8.5231 -85.6563 30.2197 17.2845 121.2483 -2.2448 -36.0728 -14.4491 0.0516 -1.4661 -4.0323 0.0000 0.0000 0.0000 17.2424 -26.7850 -90.6582 -31.4247 -16.5265 125.3906 -0.3385 25.5063 -20.1278 -0.0110 0.6770 -1.8605 3.6991 7.9463 35.3321 6.4694 11.1813 16.3834 1.3811 5.4144 -0.2359 -3.5868 -7.1602 -16.7144 -5.6386 -7.2048 26.5604 -2.4815 -4.1876 11.3325 0.0000 -0.0000 0.0000 -77.0467 1.6734 64.6092 91.9776 -59.9852 -61.7126 -0.0000 -0.0000 3.0601 48.2997 13.2863 14.4635 -7.1250 0.0000 -0.0000 20.6354 48.3862 1.7947 0.0000 -0.0000 0.0000 61.3503 55.3098 7.0285 -12.7234 20.8805 -2.3538 0.0000 0.0000 7.5398 -67.4747 33.0526 -52.7505 7.1250 -0.0000 -0.0000 -18.3308 27.2375 -25.5551
0.00 0.00 0.00 -3.9027 3.1162 7.5015 0.0000 0.0000 0.0000 0.1632 16.8587 -93.7490 34.0872 14.3433 135.3694 -1.2857 -36.0277 -19.5494 0.4264 -4.1909 -11.6144 0.0000 0.0000 0.0000 18.3605 -35.0289 -99.1439 -34.7088 -13.7044 137.9341 0.1766 28.5526 -19.1773 -0.0034 -0.3789 1.0412 4.7414 8.0768 40.0758 7.5256 11.7321 17.8544 1.6048 5.6144 -0.0076 -4.1861 -7.1752 -16.7233 -6.8124 -6.7946 24.9709 -2.6806 -4.1946 10.7361 0.0000 -0.0000 0.0000 -78.6017 2.4420 61.9308 98.3870 -59.7325 -67.2569 -0.0000 -0.0000 11.0866 50.2753 13.7496 15.9624 -7.1250 0.0000 -0.0000 22.9508 49.4839 2.6636 0.0000 -0.0000 0.0000 55.0736 57.6778 2.7873 -13.7963 22.4427 -2.7499 0.0000 0.0000 10.7185 -70.3692 33.1095 -56.8558 7.1250 -0.0000 -0.0000 -19.8706 30.0366 -28.1859
